<?xml version="1.0" standalone="no"?>
<!DOCTYPE svg PUBLIC "-//W3C//DTD SVG 20010904//EN"
 "http://www.w3.org/TR/2001/REC-SVG-20010904/DTD/svg10.dtd">
<svg version="1.0" xmlns="http://www.w3.org/2000/svg"
 width="2048.000000pt" height="2048.000000pt" viewBox="0 0 2048.000000 2048.000000"
 preserveAspectRatio="xMidYMid meet">
<metadata>
Created by potrace 1.14, written by Peter Selinger 2001-2017
</metadata>
<g transform="translate(0.000000,2048.000000) scale(0.100000,-0.100000)"
fill="#000000" stroke="none">
<path d="M16190 18329 c-171 -16 -266 -41 -378 -99 -78 -40 -103 -58 -173
-124 -110 -105 -180 -225 -214 -371 -28 -117 -25 -332 5 -441 23 -85 79 -214
92 -214 4 0 8 -6 8 -13 0 -20 104 -131 169 -181 110 -85 261 -145 411 -164 76
-10 602 -9 673 1 324 45 573 240 662 519 32 101 39 151 39 278 1 170 -20 264
-86 395 -37 74 -59 104 -135 180 -109 111 -273 194 -433 220 -106 17 -513 26
-640 14z"/>
<path d="M1308 17812 c-37 -2 -48 -7 -49 -20 0 -9 -1 -1883 -2 -4165 -2 -4141
-2 -4147 18 -4148 11 0 401 -1 867 -2 558 -1 849 1 851 8 2 6 3 568 3 1251
l-1 1241 424 -1 424 -1 49 -90 c27 -49 76 -141 109 -203 33 -61 85 -158 115
-215 53 -96 94 -172 176 -327 19 -36 46 -85 60 -110 14 -25 47 -85 73 -135
101 -190 191 -357 221 -413 13 -23 47 -86 75 -140 29 -53 60 -110 69 -127 10
-16 41 -75 70 -130 30 -55 106 -197 169 -315 64 -118 125 -232 136 -252 11
-21 24 -38 30 -39 5 0 242 -2 525 -3 445 -2 522 -5 565 -19 55 -18 256 -62
320 -70 217 -29 723 -29 825 -2 8 2 35 7 60 10 52 6 95 13 130 21 14 3 34 8
45 11 11 2 33 7 49 9 51 10 218 63 296 95 280 116 503 275 671 479 143 173
247 402 289 633 10 54 19 100 21 102 5 4 55 8 84 6 20 -1 20 -7 20 -632 0
-378 4 -633 9 -637 5 -3 144 -5 308 -5 164 0 298 -3 298 -7 0 -3 -52 -41 -115
-84 -63 -43 -115 -83 -116 -89 0 -7 0 -127 0 -267 l0 -256 -92 -24 c-268 -69
-450 -200 -594 -426 -28 -42 -83 -167 -102 -229 -23 -72 -51 -216 -56 -279 -1
-23 -3 -48 -4 -57 -1 -13 -11 -16 -51 -14 -28 1 -52 4 -54 6 -3 2 -7 24 -11
48 -8 56 -71 276 -90 318 -8 17 -15 36 -15 42 0 6 -4 19 -10 29 -5 9 -25 51
-45 92 -76 156 -187 297 -288 366 -40 27 -157 84 -179 88 -7 1 -18 5 -24 8
-32 21 -230 45 -346 43 -265 -5 -454 -63 -648 -196 -62 -43 -104 -81 -172
-158 -42 -47 -48 -50 -49 -30 0 13 -1 80 -2 148 l-2 125 -862 0 c-474 1 -864
-2 -867 -5 -3 -3 -6 -907 -7 -2010 0 -1105 -5 -2035 -10 -2074 -11 -90 -15
-111 -25 -160 -4 -22 -9 -42 -9 -45 -1 -3 -9 -32 -19 -65 -124 -413 -429 -617
-926 -618 -385 -1 -667 135 -821 394 -61 103 -117 264 -134 384 -4 28 -10 59
-14 70 -3 11 -7 942 -8 2069 -2 1128 -5 2052 -8 2054 -6 7 -1725 5 -1731 -1
-7 -6 -6 -4013 0 -4089 2 -25 7 -85 11 -133 4 -48 8 -95 10 -104 1 -9 6 -43
10 -76 3 -32 8 -62 10 -65 2 -3 6 -26 10 -50 18 -125 78 -340 137 -490 217
-554 640 -990 1188 -1225 91 -39 340 -127 340 -120 0 2 18 -2 40 -10 40 -14
165 -42 225 -51 17 -3 50 -9 75 -14 25 -5 68 -12 95 -15 28 -3 66 -8 85 -10
19 -2 71 -7 115 -10 44 -3 103 -8 130 -10 58 -5 386 -5 460 0 216 13 342 28
517 61 83 15 261 58 292 70 10 4 16 1 16 -7 0 -12 123 -14 745 -14 655 0 745
2 746 15 0 8 1 316 1 685 l1 670 33 100 c51 157 74 250 109 445 4 25 15 102
21 155 3 28 8 73 11 100 3 28 7 718 9 1535 2 817 4 1495 4 1507 0 16 13 28 53
46 173 82 422 38 543 -96 66 -74 103 -159 133 -312 7 -32 10 -891 11 -2444 0
-1418 4 -2397 9 -2400 7 -5 1163 -7 1181 -2 3 0 6 1060 6 2353 0 1294 3 2391
6 2438 25 327 177 500 443 503 109 1 189 -20 265 -71 100 -68 162 -179 195
-352 20 -105 23 -3369 3 -3371 -7 -1 -38 -2 -68 -3 l-55 -1 0 -747 c-1 -506 3
-749 10 -751 5 -2 1560 -3 3454 -3 l3443 1 108 160 c60 88 112 165 117 171 4
5 13 18 18 27 9 15 122 183 500 742 78 116 186 275 240 355 654 966 938 1411
1123 1760 25 47 48 90 52 95 11 15 193 379 228 455 127 282 192 446 251 640
23 74 46 149 52 167 5 18 12 40 14 50 2 10 13 58 25 107 11 50 23 106 26 125
3 20 7 43 9 51 2 8 7 29 10 45 2 17 7 40 9 52 3 12 8 53 11 90 4 37 9 70 10
73 2 3 6 43 10 90 4 47 9 101 10 120 6 50 6 426 0 480 -2 25 -7 74 -10 110 -6
65 -7 77 -19 160 -52 351 -174 703 -345 996 l-29 51 226 0 c125 1 230 2 235 2
4 1 7 354 7 786 l0 785 -899 0 -899 0 0 2368 c-1 1302 -1 2381 -1 2397 l-1 30
-1792 0 -1793 0 -3 -781 -2 -781 985 1 985 1 0 -1617 0 -1618 -1067 -1 c-588
0 -1183 -2 -1323 -4 -328 -5 -414 11 -552 102 -110 72 -174 162 -221 310 l-21
68 -2 3138 c-1 1726 -5 3141 -8 3144 -4 4 -3433 7 -3673 3 l-33 0 0 -780 0
-780 43 -1 c23 0 466 0 985 0 518 -1 942 -4 943 -7 0 -4 2 -1087 3 -2407 2
-1320 6 -2425 10 -2455 6 -46 26 -184 41 -280 9 -61 68 -268 101 -357 20 -54
61 -147 90 -207 30 -60 51 -112 47 -116 -12 -12 -351 -240 -355 -240 -2 0 -4
843 -4 1873 -1 1692 -4 2057 -19 2099 -2 7 -6 29 -9 48 -23 197 -144 503 -274
696 -137 204 -343 407 -558 552 -55 36 -290 172 -299 172 -2 0 -36 15 -77 34
-198 91 -510 189 -733 230 -102 19 -208 36 -260 41 -33 4 -70 8 -82 10 -74 12
-282 20 -498 20 -288 -1 -407 -8 -585 -36 -108 -17 -121 -19 -250 -46 l-125
-26 -897 -1 c-886 -1 -898 -1 -911 -21 -8 -11 -35 -60 -62 -110 -26 -49 -51
-94 -55 -100 -4 -5 -23 -39 -42 -75 -20 -36 -48 -87 -63 -115 -16 -27 -56
-100 -90 -160 -33 -61 -64 -117 -68 -125 -4 -8 -18 -33 -30 -55 -13 -22 -99
-177 -192 -345 -93 -168 -181 -327 -197 -353 -15 -26 -28 -50 -28 -52 0 -2
-17 -34 -39 -72 -21 -37 -53 -95 -71 -128 -18 -33 -64 -116 -103 -185 -38 -69
-80 -143 -91 -165 -130 -241 -192 -345 -205 -346 -91 -5 -826 -2 -834 3 -8 5
-11 602 -12 2188 l0 2182 -820 2 c-451 0 -841 0 -867 -2z m6857 -3192 c80 -10
93 -12 195 -35 240 -56 438 -183 548 -354 55 -85 82 -156 98 -261 6 -40 9
-648 3 -654 -2 -3 -387 -6 -854 -9 -468 -2 -866 -7 -885 -10 -19 -3 -66 -8
-105 -11 -114 -11 -148 -15 -175 -21 -14 -2 -41 -7 -60 -10 -180 -28 -399 -85
-585 -152 -95 -35 -403 -184 -414 -201 -3 -5 -13 -11 -21 -14 -18 -7 -192
-131 -234 -168 -17 -14 -68 -61 -114 -105 -46 -44 -88 -80 -94 -80 -5 0 -23
25 -40 55 -17 30 -41 74 -53 96 l-23 42 75 133 c41 74 89 159 106 189 17 30
59 104 94 164 35 60 63 110 63 111 0 2 19 36 43 77 24 40 56 96 71 123 16 28
89 157 163 288 l135 237 389 0 c362 0 390 1 396 18 3 9 21 50 40 90 116 239
450 428 813 459 36 3 67 7 69 9 7 6 289 1 356 -6z m848 -2726 c-3 -472 -13
-526 -131 -709 -87 -135 -245 -265 -424 -349 -91 -43 -113 -51 -213 -80 -205
-60 -595 -80 -785 -41 -14 3 -36 7 -50 10 -90 17 -242 73 -292 107 -14 10 -29
18 -33 18 -14 0 -92 65 -153 129 -74 76 -141 204 -168 316 -16 70 -24 292 -11
345 6 23 16 71 21 95 7 37 46 120 81 175 127 199 362 325 655 352 19 2 366 4
770 5 l735 1 -2 -374z m4433 -2457 c-13 -23 -40 -71 -60 -107 l-36 -65 0 106
0 106 60 1 60 0 -24 -41z m2854 -141 c368 -47 635 -192 834 -454 109 -143 196
-365 223 -567 16 -120 8 -472 -12 -545 -2 -8 -6 -28 -9 -44 -18 -104 -119
-339 -179 -418 -134 -175 -250 -276 -413 -361 -198 -101 -416 -147 -689 -142
-372 6 -663 116 -885 337 -236 234 -350 547 -344 950 1 147 4 174 29 314 65
355 302 668 617 813 83 38 222 84 288 95 19 3 45 8 58 11 13 2 53 7 90 11 37
3 68 7 69 8 6 5 272 -2 323 -8z m-4635 -215 c-3 -25 -8 -75 -10 -111 -3 -36
-7 -78 -10 -95 -3 -16 -7 -50 -10 -75 -3 -25 -8 -70 -12 -100 -3 -30 -8 -1142
-10 -2470 -2 -1328 -5 -2416 -8 -2418 -2 -2 -137 -4 -299 -5 l-296 -2 -1 1705
c-1 938 -2 1734 -4 1770 -4 100 -16 243 -20 250 -2 4 -7 29 -10 56 -20 149
-110 426 -175 534 -5 8 -23 39 -40 69 -17 29 -54 82 -81 116 l-49 63 47 34
c27 19 55 37 63 41 8 4 47 28 87 54 40 27 114 75 165 107 251 161 380 261 567
442 46 44 90 81 98 81 10 0 12 -11 8 -46z m1735 -2436 c217 -412 582 -757
1009 -954 87 -40 355 -134 412 -145 13 -2 35 -7 49 -10 36 -8 76 -16 150 -27
36 -5 76 -12 90 -14 91 -16 395 -23 525 -11 430 39 854 258 1207 623 33 34 67
72 76 84 9 13 24 31 33 40 10 10 43 54 74 98 31 44 60 82 63 84 4 2 20 1 35
-2 l29 -6 -68 -100 c-37 -55 -90 -134 -119 -175 -29 -41 -135 -199 -235 -350
-101 -151 -254 -376 -340 -500 -86 -124 -201 -290 -255 -370 -55 -80 -116
-170 -137 -200 -22 -30 -73 -104 -114 -165 -70 -103 -105 -153 -329 -480 -49
-71 -151 -220 -226 -330 -147 -215 -175 -254 -201 -288 -17 -21 -17 -13 -18
169 l0 192 -877 0 -878 -1 -3 1463 c-1 805 0 1462 2 1459 2 -2 23 -40 46 -84z"/>
</g>
</svg>
