<svg
	class="logo"
	xmlns="http://www.w3.org/2000/svg"
	shape-rendering="geometricPrecision"
	text-rendering="geometricPrecision"
	image-rendering="optimizeQuality"
	fill-rule="evenodd"
	clip-rule="evenodd"
	viewBox="0 0 2048 2048">
  <path
		fill="#fefffe"
		d="M1618.5 213.5c17-.167 34 0 51 .5 34.02 1.409 58.52 17.242 73.5 47.5 7.31 22.338 7.31 44.671 0 67-12 25.981-32.16 41.481-60.5 46.5-23.3 1.58-46.64 1.913-70 1-46.58-6.742-70.91-33.575-73-80.5.22-38.712 18.55-64.546 55-77.5 8.08-1.844 16.08-3.344 24-4.5Z"
		opacity=".989"/>
  <path
		fill="#fefffe"
		d="M124.5 265.5h175v438c28.574.329 57.074-.005 85.5-1 44.294-79.753 88.46-159.586 132.5-239.5 60.667-.333 121.333-.667 182-1 41.471-9.734 83.471-13.067 126-10 50.729 2.468 98.729 15.134 144 38 44.85 23.849 76.68 59.349 95.5 106.5 5.51 16.566 8.85 33.566 10 51 .33 127 .67 254 1 381 11.86-7.83 23.36-16 34.5-24.5-17.36-32.265-26.86-66.765-28.5-103.5-.5-159-.67-318-.5-477h-197v-158h372c-.17 209 0 418 .5 627 4.37 28.041 20.54 44.541 48.5 49.5 9.15.867 18.31 1.367 27.5 1.5 80.5-.957 161-1.291 241.5-1v-323h-197v-157h360v480h179v158c-15.01-.33-30.01 0-45 1 27.16 47.14 40.49 97.97 40 152.5-.68 57.9-12.52 113.4-35.5 166.5-28.54 63.11-62.21 123.11-101 180-48.83 72.17-97.67 144.33-146.5 216.5-230.67.5-461.33.67-692 .5v-151h14c.167-107 0-214-.5-321-.037-14.19-3.37-27.53-10-40-11.3-14.44-26.133-20.27-44.5-17.5-18.014 3.68-29.181 14.51-33.5 32.5-1.541 6.25-2.541 12.58-3 19-.5 159.33-.667 318.67-.5 478h-120c.482-161.35-.018-322.68-1.5-484-5.042-35.43-25.209-50.27-60.5-44.5-4.305.9-8.139 2.74-11.5 5.5-.333 99.33-.667 198.67-1 298-1.476 29.19-7.143 57.53-17 85-.5 46.67-.667 93.33-.5 140-50.816.66-101.482-.01-152-2-69.698 18.71-139.364 18.54-209-.5-87.84-28.51-141.34-88.01-160.5-178.5-3.716-19.83-5.716-39.83-6-60-.5-132.33-.667-264.67-.5-397h175c-.167 130.33 0 260.67.5 391 1.098 79.1 40.932 114.27 119.5 105.5 41.766-7.1 66.266-31.6 73.5-73.5.886-4.97 1.552-9.97 2-15 .333-135.67.667-271.33 1-407 58.095-1 116.262-1.33 174.5-1-.166 9.67 0 19.34.5 29 19.332-24.08 44.499-37.25 75.5-39.5 25.443-3.31 48.777 2.02 70 16 9.747 8.74 17.581 18.91 23.5 30.5 8.873 18.12 15.04 37.12 18.5 57h10c.296-39.11 16.629-69.27 49-90.5 10.92-6.15 22.587-9.98 35-11.5-.167-18 0-36 .5-54 7.413-5.29 14.913-10.46 22.5-15.5-20.331-.5-40.664-.67-61-.5v-128h-10c-5.973 48.14-29.639 84.64-71 109.5-39.055 21.28-80.888 31.11-125.5 29.5-27.077.81-53.577-2.69-79.5-10.5-35.005-.17-70.005-.67-105-1.5-44.754-82.51-89.254-165.174-133.5-248-28.093-.995-56.259-1.328-84.5-1v250h-175v-835Zm670 319c25.546-.326 49.546 5.507 72 17.5 16.981 10.318 27.814 25.152 32.5 44.5 1.401 23.304 1.901 46.638 1.5 70-55.668-.167-111.334 0-167 .5-56.025 1.567-107.358 17.567-154 48-11.259 8.588-21.926 17.921-32 28-.832.688-1.498.521-2-.5-3.333-6-6.667-12-10-18 24.874-43.915 49.874-87.748 75-131.5 26.006-.167 52.006-.667 78-1.5 7.992-19.826 21.659-34.326 41-43.5 20.908-8.814 42.575-13.314 65-13.5Zm-46 237h152c.413 26.028-.087 52.028-1.5 78-4.655 22.645-16.488 40.478-35.5 53.5-27.189 17.425-57.023 25.591-89.5 24.5-25.488 1.087-48.988-5.079-70.5-18.5-22.914-18.694-32.414-42.86-28.5-72.5 3.103-23.745 14.936-41.578 35.5-53.5 12.21-5.796 24.876-9.629 38-11.5Zm587 279c3.35-.17 6.68 0 10 .5-3.8 5.09-6.97 10.59-9.5 16.5-.5-5.66-.67-11.32-.5-17Zm258 17c28.16-2.19 55.16 2.31 81 13.5 33.23 18.59 53.06 46.76 59.5 84.5 4.34 27.92 2.01 55.25-7 82-17.99 40.27-48.82 64.1-92.5 71.5-29.5 4.69-58.16 1.36-86-10-37.3-18.72-58.8-48.88-64.5-90.5-4.51-30.08-.84-59.08 11-87 21.06-39.19 53.89-60.52 98.5-64Zm-431 18h3c-1.46 17-2.96 34-4.5 51-.5 160-.67 320-.5 480h-60c.17-119 0-238-.5-357-1.73-36.87-13.9-69.71-36.5-98.5 22-14.67 44-29.33 66-44 7.85-6.43 15.52-13.1 23-20 3.92-3.41 7.25-7.24 10-11.5Zm173 242c38.4 71.81 98.4 112.31 180 121.5 41.86 5.8 81.19-1.53 118-22 30.43-17.43 55.43-40.77 75-70 1.76-.8 3.43-.63 5 .5-66.67 98.68-133.84 197.01-201.5 295-.5-12-.67-24-.5-36h-176v-289Z"
		opacity=".994"/>
</svg>